ffmpeg version 3.2.2 Copyright (c) 2000-2016 the FFmpeg developers
  built with gcc 4.8 (Ubuntu 4.8.4-2ubuntu1~14.04.3)
  configuration: --extra-libs=-ldl --prefix=/opt/ffmpeg --mandir=/usr/share/man --enable-avresample --disable-debug --enable-nonfree --enable-gpl --enable-version3 --enable-libopencore-amrnb --enable-libopencore-amrwb --disable-decoder=amrnb --disable-decoder=amrwb --enable-libpulse --enable-libfreetype --enable-gnutls --enable-libx264 --enable-libx265 --enable-libfdk-aac --enable-libvorbis --enable-libmp3lame --enable-libopus --enable-libvpx --enable-libspeex --enable-libass --enable-avisynth --enable-libsoxr --enable-libxvid --enable-libvidstab --enable-libwavpack --enable-nvenc
  libavutil      55. 34.100 / 55. 34.100
  libavcodec     57. 64.101 / 57. 64.101
  libavformat    57. 56.100 / 57. 56.100
  libavdevice    57.  1.100 / 57.  1.100
  libavfilter     6. 65.100 /  6. 65.100
  libavresample   3.  1.  0 /  3.  1.  0
  libswscale      4.  2.100 /  4.  2.100
  libswresample   2.  3.100 /  2.  3.100
  libpostproc    54.  1.100 / 54.  1.100
Input #0, mov,mp4,m4a,3gp,3g2,mj2, from '/var/www/html/rockabyte/admin/uploads/video/t7ET9Cwpconv917.mp4':
  Metadata:
    major_brand     : isom
    minor_version   : 512
    compatible_brands: isomiso2avc1mp41
    encoder         : Lavf56.36.100
  Duration: 00:00:07.64, start: 0.000000, bitrate: 819 kb/s
    Stream #0:0(eng): Video: h264 (High) (avc1 / 0x31637661), yuv420p, 1280x720 [SAR 1:1 DAR 16:9], 729 kb/s, 30 fps, 30 tbr, 15360 tbn, 60 tbc (default)
    Metadata:
      handler_name    : VideoHandler
    Stream #0:1(eng): Audio: aac (LC) (mp4a / 0x6134706D), 48000 Hz, stereo, fltp, 123 kb/s (default)
    Metadata:
      handler_name    : SoundHandler
Please use -b:a or -b:v, -b is ambiguous
[libx264 @ 0x250b860] using SAR=1/1
[libx264 @ 0x250b860] using cpu capabilities: MMX2 SSE2Fast SSSE3 SSE4.2 AVX
[libx264 @ 0x250b860] profile High, level 3.1
[libx264 @ 0x250b860] 264 - core 148 r2643 5c65704 - H.264/MPEG-4 AVC codec - Copyleft 2003-2015 - http://www.videolan.org/x264.html - options: cabac=1 ref=3 deblock=1:0:0 analyse=0x3:0x113 me=hex subme=7 psy=1 psy_rd=1.00:0.00 mixed_ref=1 me_range=16 chroma_me=1 trellis=1 8x8dct=1 cqm=0 deadzone=21,11 fast_pskip=1 chroma_qp_offset=-2 threads=6 lookahead_threads=1 sliced_threads=0 nr=0 decimate=1 interlaced=0 bluray_compat=0 constrained_intra=0 bframes=3 b_pyramid=2 b_adapt=1 b_bias=0 direct=1 weightb=1 open_gop=0 weightp=2 keyint=250 keyint_min=25 scenecut=40 intra_refresh=0 rc_lookahead=40 rc=abr mbtree=1 bitrate=700 ratetol=1.0 qcomp=0.60 qpmin=0 qpmax=69 qpstep=4 ip_ratio=1.40 aq=1:1.00
Output #0, mp4, to '/var/www/html/rockabyteServicesV2/uploads/video/convertedLoopVideos/t7ET9Cwpconv917.mp4':
  Metadata:
    major_brand     : isom
    minor_version   : 512
    compatible_brands: isomiso2avc1mp41
    encoder         : Lavf57.56.100
    Stream #0:0(eng): Video: h264 (libx264) ([33][0][0][0] / 0x0021), yuv420p, 1280x720 [SAR 1:1 DAR 16:9], q=-1--1, 700 kb/s, 30 fps, 15360 tbn, 30 tbc (default)
    Metadata:
      handler_name    : VideoHandler
      encoder         : Lavc57.64.101 libx264
    Side data:
      cpb: bitrate max/min/avg: 0/0/700000 buffer size: 0 vbv_delay: -1
    Stream #0:1(eng): Audio: aac (LC) ([64][0][0][0] / 0x0040), 48000 Hz, stereo, fltp, 128 kb/s (default)
    Metadata:
      handler_name    : SoundHandler
      encoder         : Lavc57.64.101 aac
Stream mapping:
  Stream #0:0 -> #0:0 (h264 (native) -> h264 (libx264))
  Stream #0:1 -> #0:1 (aac (native) -> aac (native))
Press [q] to stop, [?] for help
frame=   46 fps=0.0 q=0.0 size=     317kB time=00:00:01.62 bitrate=1599.9kbits/s speed=3.16x    frame=   65 fps= 64 q=39.0 size=     344kB time=00:00:02.26 bitrate=1247.8kbits/s speed=2.23x    frame=   82 fps= 52 q=37.0 size=     374kB time=00:00:02.81 bitrate=1089.0kbits/s speed=1.79x    frame=   93 fps= 44 q=36.0 size=     407kB time=00:00:03.19 bitrate=1042.9kbits/s speed=1.53x    frame=  103 fps= 38 q=35.0 size=     449kB time=00:00:03.51 bitrate=1045.1kbits/s speed= 1.3x    frame=  117 fps= 36 q=35.0 size=     470kB time=00:00:03.98 bitrate= 965.8kbits/s speed=1.22x    frame=  130 fps= 34 q=34.0 size=     520kB time=00:00:04.41 bitrate= 964.8kbits/s speed=1.16x    frame=  147 fps= 33 q=33.0 size=     560kB time=00:00:04.99 bitrate= 918.5kbits/s speed=1.13x    frame=  156 fps= 32 q=33.0 size=     598kB time=00:00:05.29 bitrate= 926.4kbits/s speed=1.07x    frame=  165 fps= 30 q=33.0 size=     641kB time=00:00:05.58 bitrate= 938.8kbits/s speed=1.01x    frame=  172 fps= 28 q=34.0 size=     677kB time=00:00:05.82 bitrate= 952.7kbits/s speed=0.935x    frame=  178 fps= 26 q=34.0 size=     695kB time=00:00:06.01 bitrate= 946.7kbits/s speed=0.891x    frame=  190 fps= 26 q=34.0 size=     732kB time=00:00:06.42 bitrate= 933.7kbits/s speed=0.882x    frame=  206 fps= 26 q=31.0 size=     757kB time=00:00:06.95 bitrate= 892.3kbits/s speed=0.891x    frame=  216 fps= 22 q=-1.0 Lsize=     757kB time=00:00:07.61 bitrate= 814.8kbits/s speed=0.764x    
video:635kB audio:114kB subtitle:0kB other streams:0kB global headers:0kB muxing overhead: 1.157937%
[libx264 @ 0x250b860] frame I:2     Avg QP:27.33  size: 21168
[libx264 @ 0x250b860] frame P:122   Avg QP:28.61  size:  4279
[libx264 @ 0x250b860] frame B:92    Avg QP:30.31  size:   922
[libx264 @ 0x250b860] consecutive B-frames: 40.3%  5.6%  9.7% 44.4%
[libx264 @ 0x250b860] mb I  I16..4: 22.2% 70.4%  7.4%
[libx264 @ 0x250b860] mb P  I16..4:  2.7%  4.7%  0.2%  P16..4: 27.3%  2.1%  1.1%  0.0%  0.0%    skip:61.9%
[libx264 @ 0x250b860] mb B  I16..4:  0.0%  0.1%  0.0%  B16..8: 24.1%  0.2%  0.0%  direct: 0.2%  skip:75.3%  L0:38.9% L1:59.8% BI: 1.3%
[libx264 @ 0x250b860] final ratefactor: 29.55
[libx264 @ 0x250b860] 8x8 transform intra:63.7% inter:84.0%
[libx264 @ 0x250b860] coded y,uvDC,uvAC intra: 16.9% 41.3% 8.9% inter: 2.9% 9.6% 0.5%
[libx264 @ 0x250b860] i16 v,h,dc,p: 19% 55% 10% 16%
[libx264 @ 0x250b860] i8 v,h,dc,ddl,ddr,vr,hd,vl,hu: 19% 28% 41%  1%  3%  1%  3%  1%  3%
[libx264 @ 0x250b860] i4 v,h,dc,ddl,ddr,vr,hd,vl,hu: 17% 34% 19%  2% 12%  2%  8%  2%  4%
[libx264 @ 0x250b860] i8c dc,h,v,p: 60% 26% 11%  3%
[libx264 @ 0x250b860] Weighted P-Frames: Y:5.7% UV:5.7%
[libx264 @ 0x250b860] ref P L0: 70.1% 17.2%  9.2%  3.3%  0.1%
[libx264 @ 0x250b860] ref B L0: 93.2%  5.5%  1.3%
[libx264 @ 0x250b860] ref B L1: 94.8%  5.2%
[libx264 @ 0x250b860] kb/s:721.33
[aac @ 0x24852a0] Qavg: 5036.477
x2269860] ref B L1: 94.8%  5.2%
[libx264 @ 0x2269860] kb/s:721.33
[aac @ 0x21e32a0] Qavg: 5036.477
 P L0: 70.1% 17.2%  9.2%  3.3%  0.1%
[libx264 @ 0x311c860] ref B L0: 93.2%  5.5%  1.3%
[libx264 @ 0x311c860] ref B L1: 94.8%  5.2%
[libx264 @ 0x311c860] kb/s:721.33
[aac @ 0x30962a0] Qavg: 5036.477
